<svg xmlns="http://www.w3.org/2000/svg" width="820" height="280" viewBox="0 0 820 280">
<rect width="100%" height="100%" fill="white"/>
<text x="410.0" y="27" text-anchor="middle" font-family="Arial" font-size="18" font-weight="700">Urdu Wikipedia articles by domain</text>
<text x="235" y="69" text-anchor="end" font-family="Arial" font-size="13">culture</text>
<rect x="245" y="52" width="242.75" height="20" rx="3" fill="#1c5b58"/>
<text x="494.75" y="68" font-family="Arial" font-size="12">460</text>
<text x="235" y="103" text-anchor="end" font-family="Arial" font-size="13">general</text>
<rect x="245" y="86" width="474.95" height="20" rx="3" fill="#1c5b58"/>
<text x="726.95" y="102" font-family="Arial" font-size="12">900</text>
<text x="235" y="137" text-anchor="end" font-family="Arial" font-size="13">geography</text>
<rect x="245" y="120" width="495.00" height="20" rx="3" fill="#1c5b58"/>
<text x="747.00" y="136" font-family="Arial" font-size="12">938</text>
<text x="235" y="171" text-anchor="end" font-family="Arial" font-size="13">history</text>
<rect x="245" y="154" width="399.48" height="20" rx="3" fill="#1c5b58"/>
<text x="651.48" y="170" font-family="Arial" font-size="12">757</text>
<text x="235" y="205" text-anchor="end" font-family="Arial" font-size="13">pakistan</text>
<rect x="245" y="188" width="394.73" height="20" rx="3" fill="#1c5b58"/>
<text x="646.73" y="204" font-family="Arial" font-size="12">748</text>
<text x="235" y="239" text-anchor="end" font-family="Arial" font-size="13">science</text>
<rect x="245" y="222" width="103.96" height="20" rx="3" fill="#1c5b58"/>
<text x="355.96" y="238" font-family="Arial" font-size="12">197</text>
</svg>
